<svg xmlns="http://www.w3.org/2000/svg" viewBox="0 0 400 400" width="400" height="400">
  <!-- Colorful circle segments with spacing -->
  <g transform="translate(200, 200)">
    <!-- Each segment has 14 degrees with 1 degree gap = 15 degrees per segment (24 segments total) -->

    <!-- Top segments -->
    <path d="M 0,-140 A 140,140 0 0,1 33.6,-135.8 L 21.6,-87.3 A 90,90 0 0,0 0,-90 Z" fill="#FFB6C1"/>
    <path d="M 36.6,-135.2 A 140,140 0 0,1 68.7,-121.9 L 44.2,-78.4 A 90,90 0 0,0 23.5,-86.9 Z" fill="#E6E6FA"/>
    <path d="M 71.7,-120.4 A 140,140 0 0,1 97.9,-99.8 L 62.9,-64.1 A 90,90 0 0,0 46.1,-77.3 Z" fill="#87CEEB"/>
    <path d="M 100.8,-98.0 A 140,140 0 0,1 119.9,-71.5 L 77.1,-46.0 A 90,90 0 0,0 64.8,-63.0 Z" fill="#4682B4"/>
    <path d="M 122.4,-69.5 A 140,140 0 0,1 135.0,-38.6 L 86.8,-24.8 A 90,90 0 0,0 78.7,-44.7 Z" fill="#800080"/>

    <!-- Right segments -->
    <path d="M 136.4,-35.6 A 140,140 0 0,1 139.8,-2.4 L 89.9,-1.5 A 90,90 0 0,0 87.7,-22.9 Z" fill="#C71585"/>
    <path d="M 139.8,2.4 A 140,140 0 0,1 134.0,35.6 L 86.1,22.9 A 90,90 0 0,0 89.9,1.5 Z" fill="#87CEEB"/>
    <path d="M 133.6,38.6 A 140,140 0 0,1 119.4,69.5 L 76.7,44.7 A 90,90 0 0,0 85.9,24.8 Z" fill="#40E0D0"/>
    <path d="M 118.4,72.4 A 140,140 0 0,1 97.0,98.0 L 62.3,63.0 A 90,90 0 0,0 76.0,46.5 Z" fill="#1E90FF"/>
    <path d="M 95.5,100.0 A 140,140 0 0,1 68.7,119.9 L 44.2,77.1 A 90,90 0 0,0 61.4,64.2 Z" fill="#FFD700"/>

    <!-- Bottom segments -->
    <path d="M 66.2,121.4 A 140,140 0 0,1 35.6,134.0 L 22.9,86.1 A 90,90 0 0,0 42.6,78.0 Z" fill="#FFA500"/>
    <path d="M 33.0,135.0 A 140,140 0 0,1 -2.4,139.8 L -1.5,89.9 A 90,90 0 0,0 21.2,86.6 Z" fill="#FFE4B5"/>
    <path d="M -2.4,139.8 A 140,140 0 0,1 -35.6,134.0 L -22.9,86.1 A 90,90 0 0,0 1.5,89.9 Z" fill="#F4A460"/>
    <path d="M -38.6,133.6 A 140,140 0 0,1 -69.5,119.4 L -44.7,76.7 A 90,90 0 0,0 -24.8,85.9 Z" fill="#D2691E"/>
    <path d="M -72.4,118.4 A 140,140 0 0,1 -98.0,97.0 L -63.0,62.3 A 90,90 0 0,0 -46.5,76.0 Z" fill="#8B4513"/>

    <!-- Left segments -->
    <path d="M -100.0,95.5 A 140,140 0 0,1 -119.9,68.7 L -77.1,44.2 A 90,90 0 0,0 -64.2,61.4 Z" fill="#A0522D"/>
    <path d="M -121.4,66.2 A 140,140 0 0,1 -134.0,35.6 L -86.1,22.9 A 90,90 0 0,0 -78.0,42.6 Z" fill="#CD5C5C"/>
    <path d="M -135.0,33.0 A 140,140 0 0,1 -139.8,-2.4 L -89.9,-1.5 A 90,90 0 0,0 -86.6,21.2 Z" fill="#DC143C"/>
    <path d="M -139.8,2.4 A 140,140 0 0,1 -134.0,-35.6 L -86.1,-22.9 A 90,90 0 0,0 -89.9,-1.5 Z" fill="#FF0000"/>
    <path d="M -133.6,-38.6 A 140,140 0 0,1 -119.4,-69.5 L -76.7,-44.7 A 90,90 0 0,0 -85.9,-24.8 Z" fill="#FF6347"/>
    <path d="M -118.4,-72.4 A 140,140 0 0,1 -97.0,-98.0 L -62.3,-63.0 A 90,90 0 0,0 -76.0,-46.5 Z" fill="#FF7F50"/>
    <path d="M -95.5,-100.0 A 140,140 0 0,1 -68.7,-119.9 L -44.2,-77.1 A 90,90 0 0,0 -61.4,-64.2 Z" fill="#FFA07A"/>
    <path d="M -66.2,-121.4 A 140,140 0 0,1 -35.6,-134.0 L -22.9,-86.1 A 90,90 0 0,0 -42.6,-78.0 Z" fill="#FFB6C1"/>
    <path d="M -33.0,-135.0 A 140,140 0 0,1 -2.4,-139.8 L -1.5,-89.9 A 90,90 0 0,0 -21.2,-86.6 Z" fill="#FFC0CB"/>
  </g>

  <!-- White center circle background -->
  <circle cx="200" cy="200" r="85" fill="white"/>

  <!-- Utah logo in center -->
  <g transform="translate(200, 200)">
    <!-- Document outline -->
    <rect x="-40" y="-50" width="80" height="100" fill="none" stroke="black" stroke-width="2" rx="2"/>
    <!-- Document corner fold -->
    <path d="M 20,-50 L 20,-30 L 40,-30" fill="none" stroke="black" stroke-width="2"/>
    <line x1="20" y1="-30" x2="40" y2="-50" stroke="black" stroke-width="2"/>

    <!-- UTAH GLOBAL text in document -->
    <text x="0" y="-5" font-family="Arial, sans-serif" font-size="16" font-weight="bold" text-anchor="middle" fill="black">UTAH</text>
    <text x="0" y="15" font-family="Arial, sans-serif" font-size="16" font-weight="bold" text-anchor="middle" fill="black">GLOBAL</text>
  </g>

</svg>